<svg xmlns="http://www.w3.org/2000/svg" xmlns:xlink="http://www.w3.org/1999/xlink" width="771.375" height="810.631" viewBox="0 0 771.375 810.631">
  <defs>
    <clipPath id="clip-path">
      <rect id="Rectangle_305" data-name="Rectangle 305" width="771.375" height="771.097" fill="#9b9a9a"/>
    </clipPath>
  </defs>
  <g id="SOAL_logo" data-name="SOAL logo" transform="translate(-1713.313 5658.953)">
    <g id="Group_2246" data-name="Group 2246" transform="translate(1713.313 -5636.187)" clip-path="url(#clip-path)">
      <path id="Path_2600" data-name="Path 2600" d="M771.375,386.287C770.263,598.714,597.2,771.722,386.444,771.1,171.909,770.459-1.508,596.963.01,384.227,1.524,171.889,172.794-3.3,393.9.048c202.813,3.07,376.674,169.412,377.474,386.24m-7.14-.368c.19-207.7-168.886-378.639-377.413-378.737C179.968,7.084,8.933,170.631,7.3,384.7,5.686,595.478,176.688,765.74,391.045,763.492c206.533-2.165,370.8-166.694,373.189-377.573" transform="translate(0 0)" fill="#9b9a9a"/>
      <path id="Path_2601" data-name="Path 2601" d="M107.59,341.746c3.049-138.015,113.255-236.54,239.065-233.913,132.253,2.762,235,109.191,232.795,237.763-2.259,131.648-106.841,234.4-237.172,233.435C208.045,578.04,107.747,471.044,107.59,341.746m464.618,2.431c.947-125.473-101.308-228.644-227.533-229.571C219.257,113.687,116.415,215.387,114.73,342c-1.681,126.4,101.9,230.851,231.987,229.978,127.187-.853,225.125-105.251,225.491-227.8" transform="translate(43.099 43.176)" fill="#9b9a9a"/>
      <path id="Path_2602" data-name="Path 2602" d="M159.73,322.119c.071-89.625,73.19-162.706,162.591-162.511,90.525.2,163.608,73.085,163.539,163.1-.069,88.669-74.05,163.582-161.036,163.06-93.361-.56-165.168-71.738-165.094-163.648m161.713,156.47c84.98,1.562,155.563-67.175,157.22-153.107,1.672-86.692-66.312-156.7-154.1-158.685-84.407-1.913-156.175,67.028-157.612,151.4-1.52,89.3,65.378,158.752,154.5,160.388" transform="translate(63.985 63.936)" fill="#9b9a9a"/>
      <path id="Path_2603" data-name="Path 2603" d="M216.891,299.833c.108-47.046,37.51-83.328,85.556-83,43.869.3,80.388,38.356,80.078,83.445-.31,45.18-37.076,82.531-81.111,82.4-47.377-.14-84.63-36.656-84.524-82.849m7.188-.585c-.329,42.7,33.7,76.269,77.329,76.3,39.947.027,73.374-33.732,73.965-74.7.6-41.908-33.048-76.787-74.154-76.851-43-.071-76.814,32.921-77.14,75.252" transform="translate(86.883 86.86)" fill="#9b9a9a"/>
    </g>
    <path id="Path_2595" data-name="Path 2595" d="M363.873,56.981C547.264,58.062,689.352,207.32,687.709,384.517A324.446,324.446,0,0,1,351.7,706.616C177.123,700.626,36.5,557.8,38.021,379c1.5-176.644,143.471-321.488,325.852-322.014M361.623,665.8C519.172,666,647.1,539.3,646.678,381.973,646.263,225.846,522.81,97.6,361.956,98.124c-158.5.51-282.705,126.311-282.8,283.523C79.067,543.1,207.927,664.326,361.623,665.8" transform="translate(1731.23 -5636.241)" fill="#3eb05a"/>
    <path id="Path_2596" data-name="Path 2596" d="M536.348,31.1c-4.979,12.2-9.962,24.4-15.192,37.21-93.706-36-187.285-37.412-279.849,1.429C149,108.468,83.869,175.409,44.058,267.363c-2.359-.822-4.336-1.414-6.235-2.19q-15.461-6.315-30.877-12.7C88.086,46.489,332.679-55.886,536.348,31.1" transform="translate(1718.848 -5658.953)" fill="#f04d4d"/>
    <path id="Path_2597" data-name="Path 2597" d="M159.643,623.526c5.242-12.587,10.315-24.759,15.524-37.267,93.454,36.695,186.7,38.6,279.372.459,92.616-38.117,158.3-104.391,199.126-196.654l37.65,15.691c-40.282,92.853-105.044,161.86-194.957,207.117-110.935,55.839-238.754,53.2-336.716,10.655" transform="translate(1779.713 -5503.475)" fill="#f04d4d"/>
    <path id="Path_2598" data-name="Path 2598" d="M577.99,455.685l-36.748-13.874c28.394-99.793,7.28-184.889-77.919-245.682-74.312-53.025-154.233-52.639-233.143-6.347-21.074,12.362-38.624,29.088-53.584,48.5a211.69,211.69,0,0,0-33.762,63.11,207.865,207.865,0,0,0-10.772,71.444c.671,24.179,5.639,47.459,14.067,70.639-12.952,5.02-25.249,9.783-37.535,14.545-35.565-84.66-19.066-202.307,66.8-278.114,93.356-82.419,223.192-82.984,315.353-15.794,95.822,69.86,125.647,193.023,87.246,291.574" transform="translate(1752.356 -5612.821)" fill="#4662ad"/>
    <path id="Path_2599" data-name="Path 2599" d="M257.311,171.778l14.724,37.647C188.388,243.347,167.47,334.24,194.23,395.449c27.336,62.524,101.969,104.205,182.047,73.695,5.19,12.235,10.4,24.512,15.945,37.594-62.095,22.994-121.007,18.468-174.348-20.253-60.268-43.749-85.018-104.769-72.656-178,11.057-65.5,50.547-110.16,112.092-136.711" transform="translate(1772.729 -5590.483)" fill="#e8af21"/>
  </g>
</svg>
